<svg width="16" height="16" viewBox="0 0 16 16" fill="none" xmlns="http://www.w3.org/2000/svg">
<g clip-path="url(#clip0_305_10516)">
<path fill-rule="evenodd" clip-rule="evenodd" d="M3.60588 0H12.3892C14.3806 0 15.995 1.61491 15.995 3.607V12.393C15.995 14.3851 14.3806 16 12.3892 16H3.60588C1.61441 16 0 14.3851 0 12.393V3.607C0 1.61491 1.61441 0 3.60588 0ZM7.99601 2.91701C10.9366 2.91701 13.3289 4.85901 13.3289 7.24601H13.3294C13.3294 8.20151 12.959 9.06151 12.1862 9.90951C11.0676 11.1975 8.56583 12.7665 7.99651 13.0065C7.4425 13.2403 7.50726 12.874 7.53271 12.7301C7.53339 12.7262 7.53404 12.7225 7.53466 12.719C7.54815 12.639 7.61063 12.2625 7.61063 12.2625C7.62813 12.126 7.64712 11.915 7.59314 11.78C7.53316 11.6315 7.29673 11.5545 7.12328 11.517C4.56058 11.178 2.66317 9.38601 2.66317 7.24601C2.66317 4.85901 5.05543 2.91701 7.99601 2.91701Z" fill="#0A090C"/>
<path d="M11.5546 8.62453H10.0566C10.0001 8.62453 9.95459 8.57903 9.95459 8.52253V8.52103V6.19703V6.19453C9.95459 6.13803 10.0001 6.09253 10.0566 6.09253H11.5546C11.6106 6.09253 11.6566 6.13853 11.6566 6.19453V6.57303C11.6566 6.62953 11.6111 6.67503 11.5546 6.67503H10.5364V7.06803H11.5546C11.6106 7.06803 11.6566 7.11403 11.6566 7.17003V7.54853C11.6566 7.60503 11.6111 7.65053 11.5546 7.65053H10.5364V8.04353H11.5546C11.6106 8.04353 11.6566 8.08953 11.6566 8.14553V8.52403C11.6566 8.58053 11.6111 8.62603 11.5546 8.62603V8.62453Z" fill="#0A090C"/>
<path d="M6.01261 8.62454C6.0686 8.62454 6.11458 8.57904 6.11458 8.52254V8.14404C6.11458 8.08804 6.0686 8.04204 6.01261 8.04204H4.99443V6.19404C4.99443 6.13804 4.94844 6.09204 4.89246 6.09204H4.51408C4.4576 6.09204 4.41211 6.13754 4.41211 6.19404V8.52054V8.52254C4.41211 8.57904 4.4576 8.62454 4.51408 8.62454H6.01211H6.01261Z" fill="#0A090C"/>
<path d="M6.91442 6.09253H6.53654C6.48022 6.09253 6.43457 6.1382 6.43457 6.19453V8.52253C6.43457 8.57886 6.48022 8.62453 6.53654 8.62453H6.91442C6.97074 8.62453 7.01639 8.57886 7.01639 8.52253V6.19453C7.01639 6.1382 6.97074 6.09253 6.91442 6.09253Z" fill="#0A090C"/>
<path d="M9.48922 6.09253H9.11084C9.05435 6.09253 9.00887 6.13803 9.00887 6.19453V7.57703L7.9442 6.13853C7.9417 6.13503 7.9387 6.13153 7.9362 6.12803H7.9357C7.9337 6.12503 7.9317 6.12303 7.9297 6.12103L7.9277 6.11953C7.9277 6.11953 7.9242 6.11653 7.9222 6.11503C7.9212 6.11453 7.9202 6.11353 7.9192 6.11303C7.9177 6.11153 7.91571 6.11053 7.91371 6.10953C7.91271 6.10903 7.91171 6.10803 7.91071 6.10753C7.90871 6.10653 7.90721 6.10553 7.90521 6.10453C7.90421 6.10403 7.90321 6.10353 7.90221 6.10303C7.90021 6.10203 7.89821 6.10103 7.89621 6.10053L7.89271 6.09953C7.89271 6.09953 7.88871 6.09803 7.88671 6.09753C7.88571 6.09753 7.88422 6.09703 7.88322 6.09653C7.88122 6.09653 7.87922 6.09553 7.87722 6.09503C7.87572 6.09503 7.87422 6.09503 7.87272 6.09453C7.87072 6.09453 7.86922 6.09403 7.86722 6.09403C7.86522 6.09403 7.86372 6.09403 7.86172 6.09403C7.86072 6.09403 7.85922 6.09403 7.85822 6.09403H7.48234C7.42636 6.09403 7.38037 6.13953 7.38037 6.19603V8.52403C7.38037 8.58003 7.42586 8.62603 7.48234 8.62603H7.86072C7.9172 8.62603 7.96269 8.58053 7.96269 8.52403V7.14153L9.02886 8.58203C9.03636 8.59253 9.04536 8.60103 9.05535 8.60753L9.05635 8.60853C9.05635 8.60853 9.06035 8.61103 9.06285 8.61253C9.06385 8.61303 9.06485 8.61353 9.06585 8.61403C9.06735 8.61503 9.06935 8.61553 9.07085 8.61653C9.07235 8.61753 9.07435 8.61803 9.07585 8.61853C9.07685 8.61853 9.07785 8.61953 9.07885 8.61953C9.08134 8.62053 9.08334 8.62103 9.08584 8.62153H9.08734C9.09584 8.62403 9.10484 8.62553 9.11383 8.62553H9.48972C9.5457 8.62553 9.59169 8.58003 9.59169 8.52353V6.19553C9.59169 6.13953 9.5462 6.09353 9.48972 6.09353L9.48922 6.09253Z" fill="#0A090C"/>
</g>
<defs>
<clipPath id="clip0_305_10516">
<rect width="15.995" height="16" fill="white"/>
</clipPath>
</defs>
</svg>
