<svg width="58" height="48" viewBox="0 0 58 48" fill="none" xmlns="http://www.w3.org/2000/svg">
<g clip-path="url(#clip0_305_8934)">
<path d="M2.23672 31V16.72H5.25672V28.5H11.0567V31H2.23672ZM26.4147 23.84C26.4147 24.9467 26.2747 25.9533 25.9947 26.86C25.728 27.7533 25.3147 28.5267 24.7547 29.18C24.208 29.8333 23.5014 30.3333 22.6347 30.68C21.7814 31.0267 20.7747 31.2 19.6147 31.2C18.4547 31.2 17.4414 31.0267 16.5747 30.68C15.7214 30.32 15.0147 29.82 14.4547 29.18C13.908 28.5267 13.4947 27.7467 13.2147 26.84C12.948 25.9333 12.8147 24.9267 12.8147 23.82C12.8147 22.34 13.0547 21.0533 13.5347 19.96C14.028 18.8667 14.7747 18.02 15.7747 17.42C16.788 16.8067 18.0747 16.5 19.6347 16.5C21.1814 16.5 22.4547 16.8067 23.4547 17.42C24.4547 18.02 25.1947 18.8733 25.6747 19.98C26.168 21.0733 26.4147 22.36 26.4147 23.84ZM15.9947 23.84C15.9947 24.84 16.1214 25.7 16.3747 26.42C16.628 27.14 17.0214 27.6933 17.5547 28.08C18.088 28.4667 18.7747 28.66 19.6147 28.66C20.4814 28.66 21.1747 28.4667 21.6947 28.08C22.228 27.6933 22.6147 27.14 22.8547 26.42C23.108 25.7 23.2347 24.84 23.2347 23.84C23.2347 22.3333 22.9547 21.1533 22.3947 20.3C21.8347 19.4467 20.9147 19.02 19.6347 19.02C18.7814 19.02 18.088 19.2133 17.5547 19.6C17.0214 19.9867 16.628 20.54 16.3747 21.26C16.1214 21.98 15.9947 22.84 15.9947 23.84ZM35.0927 22.98H40.7527V30.38C40.006 30.6333 39.226 30.8333 38.4127 30.98C37.6127 31.1267 36.6993 31.2 35.6727 31.2C34.2593 31.2 33.0527 30.92 32.0527 30.36C31.066 29.8 30.3127 28.9733 29.7927 27.88C29.286 26.7867 29.0327 25.44 29.0327 23.84C29.0327 22.3467 29.3193 21.0533 29.8927 19.96C30.4793 18.8667 31.326 18.02 32.4327 17.42C33.5393 16.82 34.8927 16.52 36.4927 16.52C37.2527 16.52 37.9993 16.6 38.7327 16.76C39.466 16.92 40.1327 17.1333 40.7327 17.4L39.7327 19.82C39.2927 19.5933 38.7927 19.4067 38.2327 19.26C37.6727 19.1133 37.086 19.04 36.4727 19.04C35.5927 19.04 34.826 19.24 34.1727 19.64C33.5327 20.04 33.0327 20.6067 32.6727 21.34C32.326 22.06 32.1527 22.9133 32.1527 23.9C32.1527 24.8333 32.2793 25.66 32.5327 26.38C32.786 27.1 33.186 27.6667 33.7327 28.08C34.2793 28.48 34.9927 28.68 35.8727 28.68C36.166 28.68 36.4193 28.6733 36.6327 28.66C36.8593 28.6333 37.066 28.6067 37.2527 28.58C37.4393 28.54 37.6193 28.5067 37.7927 28.48V25.5H35.0927V22.98ZM57.4053 23.84C57.4053 24.9467 57.2653 25.9533 56.9853 26.86C56.7186 27.7533 56.3053 28.5267 55.7453 29.18C55.1986 29.8333 54.492 30.3333 53.6253 30.68C52.772 31.0267 51.7653 31.2 50.6053 31.2C49.4453 31.2 48.432 31.0267 47.5653 30.68C46.712 30.32 46.0053 29.82 45.4453 29.18C44.8986 28.5267 44.4853 27.7467 44.2053 26.84C43.9386 25.9333 43.8053 24.9267 43.8053 23.82C43.8053 22.34 44.0453 21.0533 44.5253 19.96C45.0186 18.8667 45.7653 18.02 46.7653 17.42C47.7786 16.8067 49.0653 16.5 50.6253 16.5C52.172 16.5 53.4453 16.8067 54.4453 17.42C55.4453 18.02 56.1853 18.8733 56.6653 19.98C57.1586 21.0733 57.4053 22.36 57.4053 23.84ZM46.9853 23.84C46.9853 24.84 47.112 25.7 47.3653 26.42C47.6186 27.14 48.012 27.6933 48.5453 28.08C49.0786 28.4667 49.7653 28.66 50.6053 28.66C51.472 28.66 52.1653 28.4667 52.6853 28.08C53.2186 27.6933 53.6053 27.14 53.8453 26.42C54.0986 25.7 54.2253 24.84 54.2253 23.84C54.2253 22.3333 53.9453 21.1533 53.3853 20.3C52.8253 19.4467 51.9053 19.02 50.6253 19.02C49.772 19.02 49.0786 19.2133 48.5453 19.6C48.012 19.9867 47.6186 20.54 47.3653 21.26C47.112 21.98 46.9853 22.84 46.9853 23.84Z" fill="#B1F2FF"/>
<path d="M42 37.75V31.545L44.2444 19.1818C45.8275 18.5728 47 17.063 47 15.25C47 12.9182 45.0818 11 42.75 11C40.4182 11 38.5 12.9182 38.5 15.25C38.5 16.2645 38.8527 17.21 39.4549 17.949L34.6543 21.378L31.4468 14.9631C32.5344 14.1932 33.25 12.926 33.25 11.5C33.25 9.16819 31.3318 7.25 29 7.25C26.6682 7.25 24.75 9.16819 24.75 11.5C24.75 12.926 25.4656 14.1932 26.5532 14.9631L23.3457 21.378L18.5451 17.949C19.1473 17.21 19.5 16.2645 19.5 15.25C19.5 12.9182 17.5818 11 15.25 11C12.9182 11 11 12.9182 11 15.25C11 17.063 12.1725 18.5728 13.7556 19.1818L16 31.545V37.75V38.25H16.5H41.5H42V37.75ZM29 17.9305L32.42 24.7705L32.5228 24.9762L32.7459 25.0319L34.6209 25.5007L34.8446 25.5566L35.0323 25.4228L40.2806 21.6834L38.8169 29.75H19.1831L17.7194 21.6834L22.9677 25.4228L23.1554 25.5566L23.3791 25.5007L25.2541 25.0319L25.4772 24.9762L25.58 24.7705L29 17.9305ZM29 10.75C29.427 10.75 29.75 11.073 29.75 11.5C29.75 11.927 29.427 12.25 29 12.25C28.573 12.25 28.25 11.927 28.25 11.5C28.25 11.073 28.573 10.75 29 10.75ZM15.25 14.5C15.677 14.5 16 14.823 16 15.25C16 15.677 15.677 16 15.25 16C14.823 16 14.5 15.677 14.5 15.25C14.5 14.823 14.823 14.5 15.25 14.5ZM42.75 14.5C43.177 14.5 43.5 14.823 43.5 15.25C43.5 15.677 43.177 16 42.75 16C42.323 16 42 15.677 42 15.25C42 14.823 42.323 14.5 42.75 14.5ZM38.5 33.25V34.75H19.5V33.25H38.5Z" fill="#3CDFFF" stroke="white"/>
</g>
<defs>
<clipPath id="clip0_305_8934">
<rect width="58" height="48" rx="20" fill="white"/>
</clipPath>
</defs>
</svg>
