<svg width="16" height="16" viewBox="0 0 16 16" fill="none" xmlns="http://www.w3.org/2000/svg">
<path d="M4.32808 1.5C4.06636 1.5 3.80855 1.59375 3.5937 1.76563L3.56245 1.78125L3.54683 1.79688L1.98433 3.40625L1.99995 3.42188C1.51753 3.86719 1.36909 4.5332 1.57808 5.10938C1.58003 5.11328 1.57613 5.12109 1.57808 5.125C2.00191 6.33789 3.08589 8.67969 5.20308 10.7969C7.32808 12.9219 9.70113 13.9629 10.875 14.4219H10.8906C11.498 14.625 12.1562 14.4805 12.625 14.0781L14.2031 12.5C14.6171 12.0859 14.6171 11.3672 14.2031 10.9531L12.1718 8.92188L12.1562 8.89063C11.7421 8.47656 11.0078 8.47656 10.5937 8.89063L9.5937 9.89063C9.23238 9.7168 8.37105 9.27149 7.54683 8.48438C6.72847 7.70313 6.3105 6.80469 6.1562 6.45313L7.1562 5.45313C7.57613 5.0332 7.58394 4.33398 7.14058 3.92188L7.1562 3.90625L7.10933 3.85938L5.10933 1.79688L5.0937 1.78125L5.06245 1.76563C4.84761 1.59375 4.5898 1.5 4.32808 1.5ZM4.32808 2.5C4.36519 2.5 4.4023 2.51758 4.43745 2.54688L6.43745 4.59375L6.48433 4.64063C6.48042 4.63672 6.51363 4.68945 6.45308 4.75L5.20308 6L4.9687 6.21875L5.07808 6.53125C5.07808 6.53125 5.6523 8.06836 6.85933 9.21875L6.9687 9.3125C8.13081 10.373 9.49995 10.9531 9.49995 10.9531L9.81245 11.0938L11.2968 9.60938C11.3828 9.52344 11.3671 9.52344 11.4531 9.60938L13.5 11.6563C13.5859 11.7422 13.5859 11.7109 13.5 11.7969L11.9687 13.3281C11.7382 13.5254 11.4941 13.5664 11.2031 13.4688C10.0703 13.0234 7.86909 12.0566 5.9062 10.0938C3.92769 8.11524 2.89449 5.87109 2.51558 4.78125C2.43941 4.57813 2.49409 4.27734 2.67183 4.125L2.70308 4.09375L4.2187 2.54688C4.25386 2.51758 4.29097 2.5 4.32808 2.5Z" fill="#0A090C"/>
</svg>
