<svg width="16" height="16" viewBox="0 0 16 16" fill="none" xmlns="http://www.w3.org/2000/svg">
<g clip-path="url(#clip0_83_4090)">
<path d="M8 16C12.4183 16 16 12.4183 16 8C16 3.58172 12.4183 0 8 0C3.58172 0 0 3.58172 0 8C0 12.4183 3.58172 16 8 16Z" fill="#F0F0F0"/>
<path d="M15.5024 5.21729H0.497594C0.176 6.08394 0 7.02132 0 7.99988C0 8.97844 0.176 9.91582 0.497594 10.7825H15.5024C15.824 9.91582 16 8.97844 16 7.99988C16 7.02132 15.824 6.08394 15.5024 5.21729Z" fill="#0052B4"/>
<path d="M7.99995 0C5.57523 0 3.40264 1.07887 1.93555 2.78259H14.0643C12.5973 1.07887 10.4247 0 7.99995 0Z" fill="#D80027"/>
<path d="M14.0644 13.2173H1.93555C3.40264 14.921 5.57523 15.9999 7.99995 15.9999C10.4247 15.9999 12.5973 14.921 14.0644 13.2173Z" fill="#D80027"/>
</g>
<defs>
<clipPath id="clip0_83_4090">
<rect width="16" height="16" fill="white"/>
</clipPath>
</defs>
</svg>
